<svg xmlns="http://www.w3.org/2000/svg" viewBox="0 0 126.09 126.08">
    <defs>
        <style>.cls-1{fill:#ab0034;}</style>
    </defs>
    <title>ICB_ICONE_Busca</title>
    <g id="Layer_2" data-name="Layer 2">
        <g id="Layer_1-2" data-name="Layer 1">
            <path class="cls-1" d="M94.71,94.71A4.06,4.06,0,0,1,91.76,96,3.75,3.75,0,0,1,89,94.84L77.47,83.64a28.55,28.55,0,0,1-17.36,5.88A29,29,0,0,1,39.65,40.07a28.25,28.25,0,0,1,20.46-8.55A29,29,0,0,1,83.22,77.89L94.71,89a4.17,4.17,0,0,1,0,5.76ZM63,0A63.23,63.23,0,0,0,0,62.62a62.16,62.16,0,0,0,18.21,44.69,62.34,62.34,0,0,0,44.41,18.77H63a63.23,63.23,0,0,0,63-62.62C126.36,28.72,98.21.28,63,0Z"/>
            <path class="cls-1" d="M60.1,39.78A20.88,20.88,0,0,0,45.39,75.37,20.12,20.12,0,0,0,60.1,81.53,20.87,20.87,0,0,0,74.81,46,20.13,20.13,0,0,0,60.1,39.78Z"/>
        </g>
    </g>
</svg>